<mxfile host="app.diagrams.net" agent="Mozilla/5.0 (Windows NT 10.0; Win64; x64) AppleWebKit/537.36 (KHTML, like Gecko) Chrome/138.0.0.0 Safari/537.36 Edg/138.0.0.0" version="28.0.5">
  <diagram name="Page-1" id="2YBvvXClWsGukQMizWep">
    <mxGraphModel dx="2191" dy="2451" grid="1" gridSize="10" guides="1" tooltips="1" connect="1" arrows="1" fold="1" page="1" pageScale="1" pageWidth="850" pageHeight="1100" math="0" shadow="0">
      <root>
        <mxCell id="0" />
        <mxCell id="1" parent="0" />
        <mxCell id="-r2XwVsaGYr7T3Kj54E3-33" value="" style="rounded=0;whiteSpace=wrap;html=1;" vertex="1" parent="1">
          <mxGeometry x="110" y="-670" width="600" height="400" as="geometry" />
        </mxCell>
        <mxCell id="-r2XwVsaGYr7T3Kj54E3-5" value="메인 화면" style="shape=umlLifeline;perimeter=lifelinePerimeter;whiteSpace=wrap;html=1;container=0;dropTarget=0;collapsible=0;recursiveResize=0;outlineConnect=0;portConstraint=eastwest;newEdgeStyle={&quot;edgeStyle&quot;:&quot;elbowEdgeStyle&quot;,&quot;elbow&quot;:&quot;vertical&quot;,&quot;curved&quot;:0,&quot;rounded&quot;:0};" vertex="1" parent="1">
          <mxGeometry x="210" y="-600" width="100" height="300" as="geometry" />
        </mxCell>
        <mxCell id="-r2XwVsaGYr7T3Kj54E3-6" value="" style="html=1;points=[];perimeter=orthogonalPerimeter;outlineConnect=0;targetShapes=umlLifeline;portConstraint=eastwest;newEdgeStyle={&quot;edgeStyle&quot;:&quot;elbowEdgeStyle&quot;,&quot;elbow&quot;:&quot;vertical&quot;,&quot;curved&quot;:0,&quot;rounded&quot;:0};" vertex="1" parent="-r2XwVsaGYr7T3Kj54E3-5">
          <mxGeometry x="45" y="70" width="10" height="40" as="geometry" />
        </mxCell>
        <mxCell id="-r2XwVsaGYr7T3Kj54E3-9" value="로그인 화면" style="shape=umlLifeline;perimeter=lifelinePerimeter;whiteSpace=wrap;html=1;container=0;dropTarget=0;collapsible=0;recursiveResize=0;outlineConnect=0;portConstraint=eastwest;newEdgeStyle={&quot;edgeStyle&quot;:&quot;elbowEdgeStyle&quot;,&quot;elbow&quot;:&quot;vertical&quot;,&quot;curved&quot;:0,&quot;rounded&quot;:0};" vertex="1" parent="1">
          <mxGeometry x="335" y="-600" width="100" height="300" as="geometry" />
        </mxCell>
        <mxCell id="-r2XwVsaGYr7T3Kj54E3-10" value="" style="html=1;points=[];perimeter=orthogonalPerimeter;outlineConnect=0;targetShapes=umlLifeline;portConstraint=eastwest;newEdgeStyle={&quot;edgeStyle&quot;:&quot;elbowEdgeStyle&quot;,&quot;elbow&quot;:&quot;vertical&quot;,&quot;curved&quot;:0,&quot;rounded&quot;:0};" vertex="1" parent="-r2XwVsaGYr7T3Kj54E3-9">
          <mxGeometry x="45" y="110" width="10" height="40" as="geometry" />
        </mxCell>
        <mxCell id="-r2XwVsaGYr7T3Kj54E3-11" value="2.로그인&lt;div&gt;사용자 ID, 암호 입력&lt;/div&gt;" style="html=1;verticalAlign=bottom;endArrow=block;edgeStyle=elbowEdgeStyle;elbow=vertical;curved=0;rounded=0;" edge="1" parent="1" source="-r2XwVsaGYr7T3Kj54E3-6">
          <mxGeometry relative="1" as="geometry">
            <mxPoint x="265" y="-480" as="sourcePoint" />
            <Array as="points">
              <mxPoint x="380" y="-490" />
            </Array>
            <mxPoint x="380" y="-490" as="targetPoint" />
            <mxPoint as="offset" />
          </mxGeometry>
        </mxCell>
        <mxCell id="-r2XwVsaGYr7T3Kj54E3-12" value="5. 로그인 결과 반환" style="html=1;verticalAlign=bottom;endArrow=open;dashed=1;endSize=8;edgeStyle=elbowEdgeStyle;elbow=vertical;curved=0;rounded=0;align=left;" edge="1" parent="1" source="-r2XwVsaGYr7T3Kj54E3-30" target="-r2XwVsaGYr7T3Kj54E3-9">
          <mxGeometry x="0.8795" relative="1" as="geometry">
            <mxPoint x="450" y="-460" as="targetPoint" />
            <Array as="points">
              <mxPoint x="600" y="-370" />
            </Array>
            <mxPoint x="570" y="-340" as="sourcePoint" />
            <mxPoint as="offset" />
          </mxGeometry>
        </mxCell>
        <mxCell id="-r2XwVsaGYr7T3Kj54E3-20" value=": 로그인" style="shape=umlActor;verticalLabelPosition=bottom;verticalAlign=top;html=1;outlineConnect=0;" vertex="1" parent="1">
          <mxGeometry x="130" y="-650" width="30" height="60" as="geometry" />
        </mxCell>
        <mxCell id="-r2XwVsaGYr7T3Kj54E3-21" value="" style="endArrow=none;dashed=1;html=1;rounded=0;" edge="1" parent="1">
          <mxGeometry width="50" height="50" relative="1" as="geometry">
            <mxPoint x="144" y="-300" as="sourcePoint" />
            <mxPoint x="144.68" y="-560" as="targetPoint" />
          </mxGeometry>
        </mxCell>
        <mxCell id="-r2XwVsaGYr7T3Kj54E3-23" value="1. 사이트 접속" style="html=1;verticalAlign=bottom;endArrow=block;edgeStyle=elbowEdgeStyle;elbow=vertical;curved=0;rounded=0;" edge="1" parent="1">
          <mxGeometry relative="1" as="geometry">
            <mxPoint x="150" y="-530" as="sourcePoint" />
            <Array as="points">
              <mxPoint x="165" y="-530" />
            </Array>
            <mxPoint x="255" y="-530" as="targetPoint" />
          </mxGeometry>
        </mxCell>
        <mxCell id="-r2XwVsaGYr7T3Kj54E3-26" value="Transmission" style="shape=umlLifeline;perimeter=lifelinePerimeter;whiteSpace=wrap;html=1;container=0;dropTarget=0;collapsible=0;recursiveResize=0;outlineConnect=0;portConstraint=eastwest;newEdgeStyle={&quot;edgeStyle&quot;:&quot;elbowEdgeStyle&quot;,&quot;elbow&quot;:&quot;vertical&quot;,&quot;curved&quot;:0,&quot;rounded&quot;:0};" vertex="1" parent="1">
          <mxGeometry x="460" y="-600" width="100" height="300" as="geometry" />
        </mxCell>
        <mxCell id="-r2XwVsaGYr7T3Kj54E3-27" value="" style="html=1;points=[];perimeter=orthogonalPerimeter;outlineConnect=0;targetShapes=umlLifeline;portConstraint=eastwest;newEdgeStyle={&quot;edgeStyle&quot;:&quot;elbowEdgeStyle&quot;,&quot;elbow&quot;:&quot;vertical&quot;,&quot;curved&quot;:0,&quot;rounded&quot;:0};" vertex="1" parent="-r2XwVsaGYr7T3Kj54E3-26">
          <mxGeometry x="45" y="150" width="10" height="40" as="geometry" />
        </mxCell>
        <mxCell id="-r2XwVsaGYr7T3Kj54E3-28" value="3.로그인 정보 요청&lt;div&gt;쿼리 전송&lt;/div&gt;" style="html=1;verticalAlign=bottom;endArrow=block;edgeStyle=elbowEdgeStyle;elbow=vertical;curved=0;rounded=0;" edge="1" parent="1">
          <mxGeometry relative="1" as="geometry">
            <mxPoint x="390" y="-450.21000000000004" as="sourcePoint" />
            <Array as="points">
              <mxPoint x="510" y="-450.21000000000004" />
            </Array>
            <mxPoint x="510" y="-450.21000000000004" as="targetPoint" />
            <mxPoint as="offset" />
          </mxGeometry>
        </mxCell>
        <mxCell id="-r2XwVsaGYr7T3Kj54E3-29" value="Database" style="shape=umlLifeline;perimeter=lifelinePerimeter;whiteSpace=wrap;html=1;container=0;dropTarget=0;collapsible=0;recursiveResize=0;outlineConnect=0;portConstraint=eastwest;newEdgeStyle={&quot;edgeStyle&quot;:&quot;elbowEdgeStyle&quot;,&quot;elbow&quot;:&quot;vertical&quot;,&quot;curved&quot;:0,&quot;rounded&quot;:0};" vertex="1" parent="1">
          <mxGeometry x="585" y="-600" width="100" height="300" as="geometry" />
        </mxCell>
        <mxCell id="-r2XwVsaGYr7T3Kj54E3-30" value="" style="html=1;points=[];perimeter=orthogonalPerimeter;outlineConnect=0;targetShapes=umlLifeline;portConstraint=eastwest;newEdgeStyle={&quot;edgeStyle&quot;:&quot;elbowEdgeStyle&quot;,&quot;elbow&quot;:&quot;vertical&quot;,&quot;curved&quot;:0,&quot;rounded&quot;:0};" vertex="1" parent="-r2XwVsaGYr7T3Kj54E3-29">
          <mxGeometry x="45" y="190" width="10" height="40" as="geometry" />
        </mxCell>
        <mxCell id="-r2XwVsaGYr7T3Kj54E3-31" value="4.로그인 데이터 확인" style="html=1;verticalAlign=bottom;endArrow=block;edgeStyle=elbowEdgeStyle;elbow=vertical;curved=0;rounded=0;" edge="1" parent="1">
          <mxGeometry relative="1" as="geometry">
            <mxPoint x="510" y="-410" as="sourcePoint" />
            <Array as="points">
              <mxPoint x="630" y="-410" />
            </Array>
            <mxPoint x="630" y="-410" as="targetPoint" />
            <mxPoint as="offset" />
          </mxGeometry>
        </mxCell>
        <mxCell id="-r2XwVsaGYr7T3Kj54E3-34" value="" style="rounded=0;whiteSpace=wrap;html=1;" vertex="1" parent="1">
          <mxGeometry x="110" y="-200" width="600" height="400" as="geometry" />
        </mxCell>
        <mxCell id="-r2XwVsaGYr7T3Kj54E3-35" value="메인 화면" style="shape=umlLifeline;perimeter=lifelinePerimeter;whiteSpace=wrap;html=1;container=0;dropTarget=0;collapsible=0;recursiveResize=0;outlineConnect=0;portConstraint=eastwest;newEdgeStyle={&quot;edgeStyle&quot;:&quot;elbowEdgeStyle&quot;,&quot;elbow&quot;:&quot;vertical&quot;,&quot;curved&quot;:0,&quot;rounded&quot;:0};" vertex="1" parent="1">
          <mxGeometry x="210" y="-130" width="100" height="300" as="geometry" />
        </mxCell>
        <mxCell id="-r2XwVsaGYr7T3Kj54E3-36" value="" style="html=1;points=[];perimeter=orthogonalPerimeter;outlineConnect=0;targetShapes=umlLifeline;portConstraint=eastwest;newEdgeStyle={&quot;edgeStyle&quot;:&quot;elbowEdgeStyle&quot;,&quot;elbow&quot;:&quot;vertical&quot;,&quot;curved&quot;:0,&quot;rounded&quot;:0};" vertex="1" parent="-r2XwVsaGYr7T3Kj54E3-35">
          <mxGeometry x="45" y="70" width="10" height="40" as="geometry" />
        </mxCell>
        <mxCell id="-r2XwVsaGYr7T3Kj54E3-37" value="로그인 화면" style="shape=umlLifeline;perimeter=lifelinePerimeter;whiteSpace=wrap;html=1;container=0;dropTarget=0;collapsible=0;recursiveResize=0;outlineConnect=0;portConstraint=eastwest;newEdgeStyle={&quot;edgeStyle&quot;:&quot;elbowEdgeStyle&quot;,&quot;elbow&quot;:&quot;vertical&quot;,&quot;curved&quot;:0,&quot;rounded&quot;:0};" vertex="1" parent="1">
          <mxGeometry x="335" y="-130" width="100" height="300" as="geometry" />
        </mxCell>
        <mxCell id="-r2XwVsaGYr7T3Kj54E3-38" value="" style="html=1;points=[];perimeter=orthogonalPerimeter;outlineConnect=0;targetShapes=umlLifeline;portConstraint=eastwest;newEdgeStyle={&quot;edgeStyle&quot;:&quot;elbowEdgeStyle&quot;,&quot;elbow&quot;:&quot;vertical&quot;,&quot;curved&quot;:0,&quot;rounded&quot;:0};" vertex="1" parent="-r2XwVsaGYr7T3Kj54E3-37">
          <mxGeometry x="45" y="110" width="10" height="40" as="geometry" />
        </mxCell>
        <mxCell id="-r2XwVsaGYr7T3Kj54E3-39" value="2.로그인&lt;div&gt;사용자 ID, 암호 입력&lt;/div&gt;" style="html=1;verticalAlign=bottom;endArrow=block;edgeStyle=elbowEdgeStyle;elbow=vertical;curved=0;rounded=0;" edge="1" source="-r2XwVsaGYr7T3Kj54E3-36" parent="1">
          <mxGeometry relative="1" as="geometry">
            <mxPoint x="265" y="-10" as="sourcePoint" />
            <Array as="points">
              <mxPoint x="380" y="-20" />
            </Array>
            <mxPoint x="380" y="-20" as="targetPoint" />
            <mxPoint as="offset" />
          </mxGeometry>
        </mxCell>
        <mxCell id="-r2XwVsaGYr7T3Kj54E3-40" value="5. 로그인 결과 반환" style="html=1;verticalAlign=bottom;endArrow=open;dashed=1;endSize=8;edgeStyle=elbowEdgeStyle;elbow=vertical;curved=0;rounded=0;align=left;" edge="1" source="-r2XwVsaGYr7T3Kj54E3-48" target="-r2XwVsaGYr7T3Kj54E3-37" parent="1">
          <mxGeometry x="0.8795" relative="1" as="geometry">
            <mxPoint x="450" y="10" as="targetPoint" />
            <Array as="points">
              <mxPoint x="600" y="100" />
            </Array>
            <mxPoint x="570" y="130" as="sourcePoint" />
            <mxPoint as="offset" />
          </mxGeometry>
        </mxCell>
        <mxCell id="-r2XwVsaGYr7T3Kj54E3-41" value=": 로그인" style="shape=umlActor;verticalLabelPosition=bottom;verticalAlign=top;html=1;outlineConnect=0;" vertex="1" parent="1">
          <mxGeometry x="130" y="-180" width="30" height="60" as="geometry" />
        </mxCell>
        <mxCell id="-r2XwVsaGYr7T3Kj54E3-42" value="" style="endArrow=none;dashed=1;html=1;rounded=0;" edge="1" parent="1">
          <mxGeometry width="50" height="50" relative="1" as="geometry">
            <mxPoint x="144" y="170" as="sourcePoint" />
            <mxPoint x="144.68" y="-90" as="targetPoint" />
          </mxGeometry>
        </mxCell>
        <mxCell id="-r2XwVsaGYr7T3Kj54E3-43" value="1. 사이트 접속" style="html=1;verticalAlign=bottom;endArrow=block;edgeStyle=elbowEdgeStyle;elbow=vertical;curved=0;rounded=0;" edge="1" parent="1">
          <mxGeometry relative="1" as="geometry">
            <mxPoint x="150" y="-60" as="sourcePoint" />
            <Array as="points">
              <mxPoint x="165" y="-60" />
            </Array>
            <mxPoint x="255" y="-60" as="targetPoint" />
          </mxGeometry>
        </mxCell>
        <mxCell id="-r2XwVsaGYr7T3Kj54E3-44" value="Transmission" style="shape=umlLifeline;perimeter=lifelinePerimeter;whiteSpace=wrap;html=1;container=0;dropTarget=0;collapsible=0;recursiveResize=0;outlineConnect=0;portConstraint=eastwest;newEdgeStyle={&quot;edgeStyle&quot;:&quot;elbowEdgeStyle&quot;,&quot;elbow&quot;:&quot;vertical&quot;,&quot;curved&quot;:0,&quot;rounded&quot;:0};" vertex="1" parent="1">
          <mxGeometry x="460" y="-130" width="100" height="300" as="geometry" />
        </mxCell>
        <mxCell id="-r2XwVsaGYr7T3Kj54E3-45" value="" style="html=1;points=[];perimeter=orthogonalPerimeter;outlineConnect=0;targetShapes=umlLifeline;portConstraint=eastwest;newEdgeStyle={&quot;edgeStyle&quot;:&quot;elbowEdgeStyle&quot;,&quot;elbow&quot;:&quot;vertical&quot;,&quot;curved&quot;:0,&quot;rounded&quot;:0};" vertex="1" parent="-r2XwVsaGYr7T3Kj54E3-44">
          <mxGeometry x="45" y="150" width="10" height="40" as="geometry" />
        </mxCell>
        <mxCell id="-r2XwVsaGYr7T3Kj54E3-46" value="3.로그인 정보 요청&lt;div&gt;쿼리 전송&lt;/div&gt;" style="html=1;verticalAlign=bottom;endArrow=block;edgeStyle=elbowEdgeStyle;elbow=vertical;curved=0;rounded=0;" edge="1" parent="1">
          <mxGeometry relative="1" as="geometry">
            <mxPoint x="390" y="19.789999999999964" as="sourcePoint" />
            <Array as="points">
              <mxPoint x="510" y="19.789999999999964" />
            </Array>
            <mxPoint x="510" y="19.789999999999964" as="targetPoint" />
            <mxPoint as="offset" />
          </mxGeometry>
        </mxCell>
        <mxCell id="-r2XwVsaGYr7T3Kj54E3-47" value="Database" style="shape=umlLifeline;perimeter=lifelinePerimeter;whiteSpace=wrap;html=1;container=0;dropTarget=0;collapsible=0;recursiveResize=0;outlineConnect=0;portConstraint=eastwest;newEdgeStyle={&quot;edgeStyle&quot;:&quot;elbowEdgeStyle&quot;,&quot;elbow&quot;:&quot;vertical&quot;,&quot;curved&quot;:0,&quot;rounded&quot;:0};" vertex="1" parent="1">
          <mxGeometry x="585" y="-130" width="100" height="300" as="geometry" />
        </mxCell>
        <mxCell id="-r2XwVsaGYr7T3Kj54E3-48" value="" style="html=1;points=[];perimeter=orthogonalPerimeter;outlineConnect=0;targetShapes=umlLifeline;portConstraint=eastwest;newEdgeStyle={&quot;edgeStyle&quot;:&quot;elbowEdgeStyle&quot;,&quot;elbow&quot;:&quot;vertical&quot;,&quot;curved&quot;:0,&quot;rounded&quot;:0};" vertex="1" parent="-r2XwVsaGYr7T3Kj54E3-47">
          <mxGeometry x="45" y="190" width="10" height="40" as="geometry" />
        </mxCell>
        <mxCell id="-r2XwVsaGYr7T3Kj54E3-49" value="4.로그인 데이터 확인" style="html=1;verticalAlign=bottom;endArrow=block;edgeStyle=elbowEdgeStyle;elbow=vertical;curved=0;rounded=0;" edge="1" parent="1">
          <mxGeometry relative="1" as="geometry">
            <mxPoint x="510" y="60" as="sourcePoint" />
            <Array as="points">
              <mxPoint x="630" y="60" />
            </Array>
            <mxPoint x="630" y="60" as="targetPoint" />
            <mxPoint as="offset" />
          </mxGeometry>
        </mxCell>
      </root>
    </mxGraphModel>
  </diagram>
</mxfile>
